{"title":"Robosapien Rebooted 2013 BRRip 480p x264  AAC - VYTO [P2PDL]","uid":8608845,"size":320528260,"categoryP":"video","categoryS":"movies","magnet":"?xt=urn:btih:035d66a05a83be708347311d77c6592fe7751b04&amp;dn=Robosapien+Rebooted+2013+BRRip+480p+x264++AAC+-+VYTO+%5BP2PDL%5D&amp;tr=udp%3A%2F%2Ftracker.openbittorrent.com%3A80&amp;tr=udp%3A%2F%2Fopen.demonii.com%3A1337&amp;tr=udp%3A%2F%2Ftracker.coppersurfer.tk%3A6969&amp;tr=udp%3A%2F%2Fexodus.desync.com%3A6969","seeders":1,"leechers":0,"uploader":"ValidusVyto","files":-1,"time":1372085750,"description":"_______ Visit us at our Semi Public Bittorrent Community ________\n  &lt;a href=&quot;\nhttp://p2pdl.com&quot; rel=&quot;nofollow&quot; target=&quot;_NEW&quot;&gt;\nhttp://p2pdl.com&lt;/a&gt;  _____________________________ &lt;a href=&quot; http://p2pdl.com&quot; rel=&quot;nofollow&quot; target=&quot;_NEW&quot;&gt; http://p2pdl.com&lt;/a&gt;\n\n\nRobosapien Rebooted 2013 BRRip 480p x264  AAC - VYTO\n\n\nAlternate Title: Cody the Robosapien\nGenre:  Adventure | Drama \nPlot: A robot boy and a human boy team up to save their respective parents,\nwho are being held captive by the organization that funded the robot's creator.   \nDirector: Sean McNamara\nStars: Penelope Ann Miller, Kim Coates, Jae Head.\nRated: PG for some mild action, bullying and brief rude humor.\n\n\nInfo: &lt;a href=&quot;\nhttp://www.imdb.com/title/tt1037222/&quot; rel=&quot;nofollow&quot; target=&quot;_NEW&quot;&gt;\nhttp://www.imdb.com/title/tt1037222/&lt;/a&gt;\n\nTrailer:\n\n\nFormat                         : MPEG-4\nFile size                      : 302 MiB\nDuration                       : 1h 25mn\nOverall bit rate               : 492 Kbps\nSource                         : 720p.BluRay.X264.DTS-NYDIC\n\nVideo\nFormat                         : AVC\nBit rate                       : 449 Kbps\nWidth                          : 720 pixels\nHeight                         : 400 pixels\nDisplay aspect ratio           : 16:9\nFrame rate mode                : Constant\nFrame rate                     : 23.976 fps\nStream size                    : 275 MiB (91%)\nWriting library                : x264 core 130 r2273\n\nAudio\nFormat                         : AAC\nBit rate mode                  : Variable\nBit rate                       : 40.0 Kbps\nChannel(s)                     : 2 channels\nChannel positions              : Front: L R\nSampling rate                  : 44.1 KHz\nStream size                    : 24.6 MiB (8%)\nLanguage                       : English\n\nSubtitle                       : N/a\n\n &lt;a href=&quot;\nhttp://ultraimg.com/images/jOhG7.png&quot; rel=&quot;nofollow&quot; target=&quot;_NEW&quot;&gt;\nhttp://ultraimg.com/images/jOhG7.png&lt;/a&gt; &lt;a href=&quot;\nhttp://ultraimg.com/images/xcd48.png&quot; rel=&quot;nofollow&quot; target=&quot;_NEW&quot;&gt;\nhttp://ultraimg.com/images/xcd48.png&lt;/a&gt; &lt;a href=&quot;\nhttp://ultraimg.com/images/fWRd.png&quot; rel=&quot;nofollow&quot; target=&quot;_NEW&quot;&gt;\nhttp://ultraimg.com/images/fWRd.png&lt;/a&gt; &lt;a href=&quot;\nhttp://ultraimg.com/images/LWqcX.png&quot; rel=&quot;nofollow&quot; target=&quot;_NEW&quot;&gt;\nhttp://ultraimg.com/images/LWqcX.png&lt;/a&gt; &lt;a href=&quot;\nhttp://ultraimg.com/images/Hw9NI.png&quot; rel=&quot;nofollow&quot; target=&quot;_NEW&quot;&gt;\nhttp://ultraimg.com/images/Hw9NI.png&lt;/a&gt; &lt;a href=&quot;\nhttp://ultraimg.com/images/i4LI0.png&quot; rel=&quot;nofollow&quot; target=&quot;_NEW&quot;&gt;\nhttp://ultraimg.com/images/i4LI0.png&lt;/a&gt;\n\n\n----------------------------------------------------------------------------------------------------\n\n\nEncoded using revolutionary 10bit encoding, which enables us to provide you more crispier \nand sharper images at small sizes, just make sure you follow our instructions without a fault.\nRecommend to you to use latest version of VLC player. Install K-Lite Codec Pack or shark007 codecs\nin case of any kind of problem in playback (For non-VLC Media Player users). Alternatively, install\nCore AVC codecs, the fastest decoder that there is coupled with Community Center Codec Pack and play\non Windows Media Player Classic. Check sample to be sure.\nEnjoy!\n\nEncoder Notes:Looking For Early Access To Anything You Can Provide DVDScr, R5, DVDR, BluRay, Direct\nAudio, Music Releases and Seedboxes. We require dedicated servers, so as to do more \nand fast releases of movies.\nIf You Got anything to offer please contact us at &quot;&lt;a class=&quot;__cf_email__&quot; href=&quot;/cdn-cgi/l/email-protection&quot; data-cfemail=&quot;d0b3bfbea4b1b3a490a0e2a0b4bcfeb3bfbd&quot;&gt;[email&amp;#160;protected]&lt;/a&gt;&lt;script cf-hash='f9e31' type=&quot;text/javascript&quot;&gt;\n/* &lt;![CDATA[ */!function(){try{var t=&quot;currentScript&quot;in document?document.currentScript:function(){for(var t=document.getElementsByTagName(&quot;script&quot;),e=t.length;e--;)if(t[e].getAttribute(&quot;cf-hash&quot;))return t[e]}();if(t&amp;&amp;t.previousSibling){var e,r,n,i,c=t.previousSibling,a=c.getAttribute(&quot;data-cfemail&quot;);if(a){for(e=&quot;&quot;,r=parseInt(a.substr(0,2),16),n=2;a.length-n;n+=2)i=parseInt(a.substr(n,2),16)^r,e+=String.fromCharCode(i);e=document.createTextNode(e),c.parentNode.replaceChild(e,c)}}}catch(u){}}();/* ]]&gt; */&lt;/script&gt;&quot;.\n\nFace book Fan Page:   &lt;a href=&quot;\nhttp://fbl.me/BC&quot; rel=&quot;nofollow&quot; target=&quot;_NEW&quot;&gt;\nhttp://fbl.me/BC&lt;/a&gt;","torrent":{"xt":"urn:btih:035d66a05a83be708347311d77c6592fe7751b04","amp;dn":"Robosapien+Rebooted+2013+BRRip+480p+x264++AAC+-+VYTO+%5BP2PDL%5D","amp;tr":["udp%3A%2F%2Ftracker.openbittorrent.com%3A80","udp%3A%2F%2Fopen.demonii.com%3A1337","udp%3A%2F%2Ftracker.coppersurfer.tk%3A6969","udp%3A%2F%2Fexodus.desync.com%3A6969"],"infoHash":"035d66a05a83be708347311d77c6592fe7751b04","infoHashBuffer":{"type":"Buffer","data":[3,93,102,160,90,131,190,112,131,71,49,29,119,198,89,47,231,117,27,4]},"announce":[],"urlList":[]}}